# xmcd
#
# Track frame offsets: 
#        150
#        11518
#        22257
#        36286
#        47959
#        83237
#        98434
#        110946
#        125327
#        140649
#        166440
#        192354
#        204280
#        219741
#        242171
#        259837
#
# Disc length: 3655 seconds
#
# Revision: 4
# Processed by: cddbd v1.5.2PL0 Copyright (c) Steve Scherf et al.
# Submitted via: ExactAudioCopyFreeDBPlugin 1.0
#
DISCID=eb0e4510
DTITLE=Various Artist - Conquer the World:  The Lost Soul of Philadel
DTITLE=phia International Records
DYEAR=2008
DGENRE=Soul
TTITLE0=Pat and The Blenders - Hard Workin' Man
TTITLE1=Bunny Sigler and Dee Dee Sharp - Conquer the World Together
TTITLE2=The Soul Devalents - Grasshopper
TTITLE3=Johnny Williams - It's So Wonderful
TTITLE4=Frankie and The Spindles - Makin' Up Time
TTITLE5=Bunny Sigler - Theme for "Five Fingers of Death"
TTITLE6=Carolyn Crawford - Good and Plenty
TTITLE7=Love Committee - Darling Come Back Home
TTITLE8=Yellow Sunshine - Yellow Sunshine
TTITLE9=Ruth McFadden - Ghetto Woman
TTITLE10=Bunny Sigler - Everybody Needs Good Lovin'
TTITLE11=Bobby Bennett - Days Go By
TTITLE12=People's Choice - The Big Hurt
TTITLE13=The Futures - Love is Here
TTITLE14=Ruby and The Party Gang - Ruby's Surprise Party
TTITLE15=The Mellow Moods - Stop Taking My Love
EXTD=Hier sind die Interpreten und die Titel in der richtigen (!) Reih
EXTD=enfolge aufgeführt. YEAR: 2008
EXTT0=
EXTT1=
EXTT2=
EXTT3=
EXTT4=
EXTT5=
EXTT6=
EXTT7=
EXTT8=
EXTT9=
EXTT10=
EXTT11=
EXTT12=
EXTT13=
EXTT14=
EXTT15=
PLAYORDER=
